<?xml version="1.0" encoding="utf-8"?>
<svg viewBox="24.061 -1.76 448.357 278.756" xmlns="http://www.w3.org/2000/svg">
  <g transform="matrix(1.227267, 0, 0, 1.20546, 71.827492, -36.870979)" style=""/>
  <g transform="matrix(1.227267, 0, 0, 1.20546, 71.827492, -36.870979)" style=""/>
  <g transform="matrix(1.227267, 0, 0, 1.20546, 71.827492, -36.870979)" style=""/>
  <g transform="matrix(1.227267, 0, 0, 1.20546, 71.827492, -36.870979)" style=""/>
  <g transform="matrix(1.227267, 0, 0, 1.20546, 71.827492, -36.870979)" style=""/>
  <g transform="matrix(1.227267, 0, 0, 1.20546, 71.827492, -36.870979)" style=""/>
  <g transform="matrix(1.227267, 0, 0, 1.20546, 71.827492, -36.870979)" style=""/>
  <g transform="matrix(1.227267, 0, 0, 1.20546, 71.827492, -36.870979)" style=""/>
  <g transform="matrix(1.227267, 0, 0, 1.20546, 71.827492, -36.870979)" style=""/>
  <g transform="matrix(1.227267, 0, 0, 1.20546, 71.827492, -36.870979)" style=""/>
  <g transform="matrix(1.227267, 0, 0, 1.20546, 71.827492, -36.870979)" style=""/>
  <g transform="matrix(1.227267, 0, 0, 1.20546, 71.827492, -36.870979)" style=""/>
  <g transform="matrix(1.227267, 0, 0, 1.20546, 71.827492, -36.870979)" style=""/>
  <g transform="matrix(1.227267, 0, 0, 1.20546, 71.827492, -36.870979)" style=""/>
  <g transform="matrix(1.227267, 0, 0, 1.20546, 71.827492, -36.870979)" style=""/>
  <g transform="matrix(1.080449, 0, 0, 1.106443, 90.313446, -14.094986)" style=""/>
  <g transform="matrix(1.080449, 0, 0, 1.106443, 90.313446, -14.094986)" style=""/>
  <g transform="matrix(1.080449, 0, 0, 1.106443, 90.313446, -14.094986)" style=""/>
  <g transform="matrix(1.080449, 0, 0, 1.106443, 90.313446, -14.094986)" style=""/>
  <g transform="matrix(1.080449, 0, 0, 1.106443, 90.313446, -14.094986)" style=""/>
  <g transform="matrix(1.080449, 0, 0, 1.106443, 90.313446, -14.094986)" style=""/>
  <g transform="matrix(1.080449, 0, 0, 1.106443, 90.313446, -14.094986)" style=""/>
  <g transform="matrix(1.080449, 0, 0, 1.106443, 90.313446, -14.094986)" style=""/>
  <g transform="matrix(1.080449, 0, 0, 1.106443, 90.313446, -14.094986)" style=""/>
  <g transform="matrix(1.080449, 0, 0, 1.106443, 90.313446, -14.094986)" style=""/>
  <g transform="matrix(1.080449, 0, 0, 1.106443, 90.313446, -14.094986)" style=""/>
  <g transform="matrix(1.080449, 0, 0, 1.106443, 90.313446, -14.094986)" style=""/>
  <g transform="matrix(1.080449, 0, 0, 1.106443, 90.313446, -14.094986)" style=""/>
  <g transform="matrix(1.080449, 0, 0, 1.106443, 90.313446, -14.094986)" style=""/>
  <g transform="matrix(1.080449, 0, 0, 1.106443, 90.313446, -14.094986)" style=""/>
  <g transform="matrix(1.227267, 0, 0, 1.060239, 66.839317, -14.864012)" style=""/>
  <g transform="matrix(1.227267, 0, 0, 1.060239, 66.839317, -14.864012)" style=""/>
  <g transform="matrix(1.227267, 0, 0, 1.060239, 66.839317, -14.864012)" style=""/>
  <g transform="matrix(1.227267, 0, 0, 1.060239, 66.839317, -14.864012)" style=""/>
  <g transform="matrix(1.227267, 0, 0, 1.060239, 66.839317, -14.864012)" style=""/>
  <g transform="matrix(1.227267, 0, 0, 1.060239, 66.839317, -14.864012)" style=""/>
  <g transform="matrix(1.227267, 0, 0, 1.060239, 66.839317, -14.864012)" style=""/>
  <g transform="matrix(1.227267, 0, 0, 1.060239, 66.839317, -14.864012)" style=""/>
  <g transform="matrix(1.227267, 0, 0, 1.060239, 66.839317, -14.864012)" style=""/>
  <g transform="matrix(1.227267, 0, 0, 1.060239, 66.839317, -14.864012)" style=""/>
  <g transform="matrix(1.227267, 0, 0, 1.060239, 66.839317, -14.864012)" style=""/>
  <g transform="matrix(1.227267, 0, 0, 1.060239, 66.839317, -14.864012)" style=""/>
  <g transform="matrix(1.227267, 0, 0, 1.060239, 66.839317, -14.864012)" style=""/>
  <g transform="matrix(1.227267, 0, 0, 1.060239, 66.839317, -14.864012)" style=""/>
  <g transform="matrix(1.227267, 0, 0, 1.060239, 66.839317, -14.864012)" style=""/>
  <path id="rect887" display="inline" fill="#ff5f00" stroke-width="5.494" d="M 195.891 53.1 L 301.8 53.1 L 301.8 227.602 L 195.891 227.602 L 195.891 53.1 Z" style=""/>
  <path id="path889" d="M 206.799 140.367 C 206.772 106.32 222.265 74.152 248.814 53.132 C 182.234 0.345 83.978 40.065 71.952 124.624 C 59.929 209.183 143.154 275.165 221.759 243.39 C 231.475 239.462 240.586 234.156 248.814 227.633 C 222.258 206.605 206.764 174.424 206.799 140.366 L 206.799 140.367 Z" fill="#eb001b" stroke-width="5.494" style=""/>
  <path id="path893" d="M 426.806 140.367 C 426.804 225.792 335.133 279.181 261.799 236.467 C 257.267 233.826 252.928 230.864 248.813 227.601 C 304.856 183.172 304.856 97.53 248.813 53.1 C 315.384 0.302 413.648 40.001 425.689 124.559 C 426.433 129.784 426.806 135.057 426.806 140.336 L 426.806 140.367 Z" class="e" fill="#f79e1b" stroke-width="5.494" style=""/>
</svg>